<?xml version="1.0" encoding="UTF-8" standalone="no"?>
<!-- Generator: Adobe Illustrator 19.0.0, SVG Export Plug-In . SVG Version: 6.00 Build 0)  -->

<svg
   version="1.1"
   id="Layer_1"
   x="0px"
   y="0px"
   viewBox="0 0 461.001 461.001"
   style="enable-background:new 0 0 461.001 461.001;"
   xml:space="preserve"
   sodipodi:docname="youtube.svg"
   inkscape:version="1.1.2 (0a00cf5339, 2022-02-04, custom)"
   xmlns:inkscape="http://www.inkscape.org/namespaces/inkscape"
   xmlns:sodipodi="http://sodipodi.sourceforge.net/DTD/sodipodi-0.dtd"
   xmlns="http://www.w3.org/2000/svg"
   xmlns:svg="http://www.w3.org/2000/svg"><defs
   id="defs39" /><sodipodi:namedview
   id="namedview37"
   pagecolor="#ffffff"
   bordercolor="#666666"
   borderopacity="1.0"
   inkscape:pageshadow="2"
   inkscape:pageopacity="0.0"
   inkscape:pagecheckerboard="0"
   showgrid="false"
   inkscape:zoom="1.8763516"
   inkscape:cx="230.5005"
   inkscape:cy="187.33162"
   inkscape:window-width="1920"
   inkscape:window-height="1056"
   inkscape:window-x="0"
   inkscape:window-y="0"
   inkscape:window-maximized="1"
   inkscape:current-layer="Layer_1" />
<g
   id="g4">
	<path
   style="fill:#F61C0D;"
   d="M365.257,67.393H95.744C42.866,67.393,0,110.259,0,163.137v134.728   c0,52.878,42.866,95.744,95.744,95.744h269.513c52.878,0,95.744-42.866,95.744-95.744V163.137   C461.001,110.259,418.135,67.393,365.257,67.393z M300.506,237.056l-126.06,60.123c-3.359,1.602-7.239-0.847-7.239-4.568V168.607   c0-3.774,3.982-6.22,7.348-4.514l126.06,63.881C304.363,229.873,304.298,235.248,300.506,237.056z"
   id="path2" />
</g>
<g
   id="g6">
</g>
<g
   id="g8">
</g>
<g
   id="g10">
</g>
<g
   id="g12">
</g>
<g
   id="g14">
</g>
<g
   id="g16">
</g>
<g
   id="g18">
</g>
<g
   id="g20">
</g>
<g
   id="g22">
</g>
<g
   id="g24">
</g>
<g
   id="g26">
</g>
<g
   id="g28">
</g>
<g
   id="g30">
</g>
<g
   id="g32">
</g>
<g
   id="g34">
</g>
<path
   style="fill:#ffffff;stroke-width:0.532949"
   d="m 169.17036,295.82777 -1.55786,-1.55785 v -63.49698 c 0,-44.46562 0.1726,-63.81948 0.57585,-64.57296 0.71524,-1.33645 3.83163,-2.69215 5.12357,-2.22888 3.64417,1.30676 127.5188,64.50919 128.47053,65.54732 1.5976,1.74263 1.59303,4.48821 -0.01,6.03111 -0.66504,0.64008 -16.55359,8.48031 -35.30788,17.42273 -18.7543,8.94241 -47.39014,22.59368 -63.63521,30.33614 -16.24507,7.74248 -30.11353,14.07722 -30.81881,14.07722 -0.7067,0 -1.98162,-0.6993 -2.84017,-1.55785 z"
   id="path265" /><path
   style="fill:#ffffff;stroke-width:0.532949"
   d="m 169.25224,296.00587 -1.63974,-1.37975 v -63.67508 c 0,-44.5932 0.17257,-63.99753 0.57585,-64.75106 0.86737,-1.6207 3.84499,-2.70106 5.60264,-2.0328 4.42893,1.68388 126.99351,64.26585 127.99146,65.35296 1.59991,1.74285 1.59318,4.48635 -0.0148,6.03397 -1.5825,1.52308 -128.03489,61.83151 -129.64594,61.83151 -0.67637,0 -1.96765,-0.62088 -2.86951,-1.37975 z"
   id="path304" /><path
   style="fill:#ffffff;stroke-width:0.532949"
   d="m 169.25224,296.00587 -1.63974,-1.37975 v -63.67508 c 0,-44.5932 0.17257,-63.99753 0.57585,-64.75106 0.31672,-0.59179 1.45126,-1.44175 2.52121,-1.88881 l 1.94536,-0.81282 15.46583,7.76285 c 56.15998,28.18872 112.64574,57.13729 113.6617,58.25087 1.59516,1.74842 1.59256,4.49502 -0.006,6.0333 -0.66267,0.63779 -11.51484,6.08529 -24.11595,12.10554 -77.68123,37.1127 -104.46805,49.73471 -105.54848,49.73471 -0.67119,0 -1.95822,-0.62088 -2.86008,-1.37975 z"
   id="path343" /><path
   style="fill:#ffffff;stroke-width:0.532949"
   d="m 169.25224,296.00587 -1.63974,-1.37975 v -63.93074 -63.93075 l 1.28648,-1.28647 c 2.78578,-2.78578 0.5104,-3.7604 51.06979,21.87489 25.87131,13.11762 54.5933,27.6804 63.82665,32.36173 9.23334,4.68133 17.32751,9.09655 17.98703,9.81158 1.52283,1.65099 1.57593,4.36583 0.11605,5.93284 -0.5957,0.6394 -3.53358,2.32626 -6.52863,3.74857 -2.99504,1.42231 -23.63179,11.27004 -45.85944,21.88385 -67.78185,32.36617 -76.15952,36.294 -77.41146,36.294 -0.66384,0 -1.94487,-0.62088 -2.84673,-1.37975 z"
   id="path382" /></svg>
