<?xml version="1.0" encoding="UTF-8" standalone="no"?>
<!-- Generator: Adobe Illustrator 19.0.0, SVG Export Plug-In . SVG Version: 6.00 Build 0)  -->

<svg
   version="1.1"
   id="Layer_1"
   x="0px"
   y="0px"
   viewBox="0 0 382 382"
   style="enable-background:new 0 0 382 382;"
   xml:space="preserve"
   sodipodi:docname="linkedin.svg"
   inkscape:version="1.1.2 (0a00cf5339, 2022-02-04, custom)"
   xmlns:inkscape="http://www.inkscape.org/namespaces/inkscape"
   xmlns:sodipodi="http://sodipodi.sourceforge.net/DTD/sodipodi-0.dtd"
   xmlns="http://www.w3.org/2000/svg"
   xmlns:svg="http://www.w3.org/2000/svg"><defs
   id="defs37" /><sodipodi:namedview
   id="namedview35"
   pagecolor="#ffffff"
   bordercolor="#666666"
   borderopacity="1.0"
   inkscape:pageshadow="2"
   inkscape:pageopacity="0.0"
   inkscape:pagecheckerboard="0"
   showgrid="false"
   inkscape:zoom="2.2643979"
   inkscape:cx="191"
   inkscape:cy="190.55838"
   inkscape:window-width="1920"
   inkscape:window-height="1056"
   inkscape:window-x="0"
   inkscape:window-y="0"
   inkscape:window-maximized="1"
   inkscape:current-layer="Layer_1" />
<path
   style="fill:#0077B7;"
   d="M347.445,0H34.555C15.471,0,0,15.471,0,34.555v312.889C0,366.529,15.471,382,34.555,382h312.889  C366.529,382,382,366.529,382,347.444V34.555C382,15.471,366.529,0,347.445,0z M118.207,329.844c0,5.554-4.502,10.056-10.056,10.056  H65.345c-5.554,0-10.056-4.502-10.056-10.056V150.403c0-5.554,4.502-10.056,10.056-10.056h42.806  c5.554,0,10.056,4.502,10.056,10.056V329.844z M86.748,123.432c-22.459,0-40.666-18.207-40.666-40.666S64.289,42.1,86.748,42.1  s40.666,18.207,40.666,40.666S109.208,123.432,86.748,123.432z M341.91,330.654c0,5.106-4.14,9.246-9.246,9.246H286.73  c-5.106,0-9.246-4.14-9.246-9.246v-84.168c0-12.556,3.683-55.021-32.813-55.021c-28.309,0-34.051,29.066-35.204,42.11v97.079  c0,5.106-4.139,9.246-9.246,9.246h-44.426c-5.106,0-9.246-4.14-9.246-9.246V149.593c0-5.106,4.14-9.246,9.246-9.246h44.426  c5.106,0,9.246,4.14,9.246,9.246v15.655c10.497-15.753,26.097-27.912,59.312-27.912c73.552,0,73.131,68.716,73.131,106.472  L341.91,330.654L341.91,330.654z"
   id="path2" />
<g
   id="g4">
</g>
<g
   id="g6">
</g>
<g
   id="g8">
</g>
<g
   id="g10">
</g>
<g
   id="g12">
</g>
<g
   id="g14">
</g>
<g
   id="g16">
</g>
<g
   id="g18">
</g>
<g
   id="g20">
</g>
<g
   id="g22">
</g>
<g
   id="g24">
</g>
<g
   id="g26">
</g>
<g
   id="g28">
</g>
<g
   id="g30">
</g>
<g
   id="g32">
</g>
<path
   style="fill:#ffffff;stroke-width:0.441619"
   d="M 79.549985,122.55611 C 71.194028,120.81255 64.77193,117.47068 58.796424,111.75657 50.673634,103.98911 46.451916,94.08739 46.451916,82.803468 c 0,-11.195083 4.122233,-20.941915 12.233694,-28.926011 8.053,-7.926552 18.242407,-11.827118 29.638089,-11.345636 11.269875,0.476167 20.065651,4.529781 27.944341,12.878409 5.19972,5.509869 8.93945,12.848078 10.26057,20.133619 0.70179,3.870096 0.60186,11.511222 -0.20028,15.315853 -2.08572,9.892798 -8.51205,19.578928 -16.75028,25.246978 -3.1503,2.16746 -8.96665,4.79312 -12.863599,5.80697 -4.629862,1.20453 -12.97397,1.51685 -17.164466,0.64246 z"
   id="path113" /><path
   style="fill:#ffffff;stroke-width:0.441619"
   d="m 61.360326,338.77167 c -2.5601,-1.16283 -4.910086,-4.08581 -5.501156,-6.84249 -0.345593,-1.61181 -0.446086,-28.39079 -0.35001,-93.26907 l 0.134771,-91.00809 1.33653,-2.16173 c 0.828014,-1.33925 2.158787,-2.67025 3.497666,-3.49827 l 2.161136,-1.33653 22.932326,-0.12916 c 26.069701,-0.14682 26.352291,-0.11806 29.470031,2.99968 3.34926,3.34926 3.11532,-4.29835 2.98611,97.61814 l -0.11559,91.17377 -0.97428,1.82133 c -1.10198,2.06006 -3.20359,3.98943 -5.3046,4.86987 -1.13303,0.4748 -6.19059,0.59354 -24.951446,0.58581 -21.90383,-0.009 -23.65418,-0.0659 -25.321488,-0.82326 z"
   id="path152" /><path
   style="fill:#ffffff;stroke-width:0.441619"
   d="m 151.65501,338.57708 c -1.07049,-0.56515 -2.54252,-1.87399 -3.27119,-2.90853 l -1.32486,-1.88099 -0.12036,-92.81228 c -0.13425,-103.51499 -0.39226,-95.00269 2.97177,-98.0419 2.76872,-2.50137 3.71799,-2.57896 29.60755,-2.42013 25.43295,0.15603 24.38724,0.0451 26.99517,2.86293 2.26878,2.45135 2.35938,2.90238 2.59327,12.90987 l 0.22081,9.4479 3.19331,-4.19474 c 11.49123,-15.09489 26.87908,-22.4719 49.46939,-23.71583 16.14604,-0.88908 30.00895,1.32688 41.00154,6.55402 6.38822,3.0377 10.80613,6.16182 15.91183,11.25201 12.13918,12.10232 18.41494,27.91963 21.65584,54.58099 0.62874,5.17238 0.74822,13.68117 0.90226,64.2555 l 0.17755,58.29364 -1.05104,1.98728 c -0.57807,1.09301 -1.89734,2.58347 -2.9317,3.31214 l -1.88068,1.32486 -25.24496,0.12444 c -28.38501,0.13992 -27.69982,0.20858 -30.49379,-3.05555 -0.82743,-0.96667 -1.73128,-2.65852 -2.00855,-3.75967 -0.36444,-1.44732 -0.49367,-16.15527 -0.46638,-53.07878 0.0388,-52.54065 -0.0237,-54.74568 -1.76092,-62.14061 -1.86206,-7.92616 -4.36828,-12.87067 -8.98975,-17.73587 -4.97776,-5.24029 -11.23475,-7.86459 -19.94638,-8.36591 -7.84265,-0.45131 -14.3696,1.2289 -20.37379,5.24474 -7.84865,5.2495 -13.51186,15.57136 -16.36003,29.81808 -0.70171,3.51 -0.79546,8.67474 -1.00946,55.61135 l -0.23591,51.742 -1.32486,1.88075 c -0.72867,1.03441 -2.2007,2.34314 -3.27119,2.90829 l -1.94634,1.02754 h -24.37091 -24.3709 z"
   id="path191" /></svg>
